<svg width="86" height="86" viewBox="0 0 86 86" fill="none" xmlns="http://www.w3.org/2000/svg">
<circle cx="43" cy="43" r="43" fill="#292929" fill-opacity="0.71"/>
<path d="M20.9546 40.3982V48.2032C20.9546 58.0142 20.9546 62.9209 24.0038 65.9675C27.0503 69.0167 31.9571 69.0167 41.768 69.0167H44.3697C54.1807 69.0167 59.0874 69.0167 62.134 65.9675M65.1832 40.3982V48.2032C65.1832 51.2472 65.1832 53.8177 65.0921 56.0083" stroke="#DAAB33" stroke-width="1.5" stroke-linecap="round"/>
<path d="M36.5649 16.9832H49.5733M36.5649 16.9832L34.8686 33.9383C34.7568 35.0824 34.8857 36.2373 35.247 37.3286C35.6082 38.42 36.1939 39.4236 36.9662 40.2751C37.7386 41.1265 38.6805 41.807 39.7316 42.2726C40.7826 42.7383 41.9195 42.9788 43.0691 42.9788C44.2186 42.9788 45.3555 42.7383 46.4065 42.2726C47.4576 41.807 48.3996 41.1265 49.1719 40.2751C49.9443 39.4236 50.5299 38.42 50.8912 37.3286C51.2524 36.2373 51.3813 35.0824 51.2696 33.9383L49.5733 16.9832M36.5649 16.9832H31.1482C28.7858 16.9832 27.6047 16.9832 26.59 17.2615C25.5347 17.551 24.552 18.0591 23.7058 18.7529C22.8596 19.4468 22.1687 20.3108 21.678 21.2889M36.5649 16.9832L34.6786 35.8323C34.5791 36.9111 34.2604 37.9581 33.7422 38.9094C33.2239 39.8607 32.517 40.6963 31.6646 41.3649C30.8122 42.0334 29.8323 42.521 28.7849 42.7978C27.7376 43.0745 26.6447 43.1346 25.5733 42.9743C24.5019 42.8141 23.4745 42.4368 22.554 41.8657C21.6335 41.2945 20.8392 40.5415 20.2198 39.6528C19.6004 38.764 19.1689 37.7582 18.9517 36.6969C18.7345 35.6355 18.7362 34.541 18.9567 33.4804L19.1336 32.5932M49.5733 16.9832H54.99C57.3523 16.9832 58.5335 16.9832 59.5481 17.2615C60.6034 17.551 61.5861 18.0591 62.4323 18.7529C63.2786 19.4468 63.9694 20.3108 64.4601 21.2889C64.931 22.2255 65.1625 23.3859 65.6256 25.7014L67.1814 33.4804C67.4019 34.541 67.4037 35.6355 67.1865 36.6969C66.9693 37.7582 66.5378 38.764 65.9184 39.6528C65.299 40.5415 64.5047 41.2945 63.5841 41.8657C62.6636 42.4368 61.6362 42.8141 60.5648 42.9743C59.4934 43.1346 58.4006 43.0745 57.3532 42.7978C56.3058 42.521 55.3259 42.0334 54.4736 41.3649C53.6212 40.6963 52.9142 39.8607 52.3959 38.9094C51.8777 37.9581 51.559 36.9111 51.4595 35.8323L49.5733 16.9832ZM36.5649 67.7159V59.9109C36.5649 57.4783 36.5649 56.2633 37.0878 55.3579C37.4303 54.7647 37.9229 54.2721 38.5161 53.9296C39.4215 53.4067 40.6365 53.4067 43.0691 53.4067C45.5016 53.4067 46.7166 53.4067 47.622 53.9296C48.2152 54.2721 48.7078 54.7647 49.0503 55.3579C49.5733 56.2633 49.5733 57.4783 49.5733 59.9109V67.7159" stroke="#DAAB33" stroke-width="1.5" stroke-linecap="round"/>
</svg>
