<svg width="971" height="248" viewBox="0 0 971 248" fill="none" xmlns="http://www.w3.org/2000/svg">
<path d="M76.1861 120.43C75.7836 116.003 73.9927 112.562 70.8132 110.107C67.674 107.612 63.1866 106.364 57.3509 106.364C53.4872 106.364 50.2675 106.867 47.6918 107.874C45.116 108.88 43.1842 110.268 41.8963 112.039C40.6084 113.77 39.9444 115.762 39.9041 118.016C39.8236 119.867 40.1858 121.497 40.9908 122.906C41.8359 124.314 43.0433 125.562 44.6129 126.648C46.2228 127.695 48.1546 128.62 50.4084 129.425C52.6622 130.23 55.1977 130.935 58.0149 131.538L68.6399 133.953C74.7573 135.281 80.1503 137.052 84.8189 139.266C89.5277 141.479 93.4718 144.115 96.6513 147.174C99.871 150.233 102.306 153.754 103.956 157.739C105.606 161.723 106.451 166.19 106.491 171.141C106.451 178.948 104.479 185.649 100.575 191.244C96.6714 196.838 91.0571 201.124 83.7322 204.102C76.4477 207.08 67.6539 208.57 57.3509 208.57C47.0076 208.57 37.9924 207.02 30.3054 203.921C22.6184 200.822 16.6418 196.113 12.3757 189.795C8.10961 183.476 5.91619 175.487 5.79545 165.828H34.4105C34.652 169.812 35.7185 173.133 37.6101 175.789C39.5017 178.445 42.0975 180.458 45.3977 181.826C48.7382 183.194 52.6018 183.879 56.9886 183.879C61.0133 183.879 64.4342 183.335 67.2514 182.249C70.1089 181.162 72.3023 179.653 73.8317 177.721C75.361 175.789 76.1458 173.576 76.1861 171.08C76.1458 168.746 75.4214 166.754 74.0128 165.104C72.6042 163.413 70.4309 161.964 67.4929 160.757C64.5952 159.509 60.8925 158.362 56.3849 157.316L43.4659 154.298C32.7604 151.843 24.3288 147.878 18.1712 142.405C12.0135 136.891 8.95478 129.446 8.99503 120.068C8.95478 112.421 11.0073 105.72 15.1527 99.9652C19.2981 94.21 25.0331 89.7225 32.358 86.5028C39.6828 83.2831 48.0339 81.6733 57.4112 81.6733C66.9898 81.6733 75.3007 83.3033 82.3438 86.5632C89.4271 89.7829 94.9207 94.3106 98.8246 100.146C102.728 105.982 104.721 112.743 104.801 120.43H76.1861ZM151.104 154.116V207H121.584V83.3636H150.138V131.297H151.165C153.258 125.582 156.679 121.115 161.428 117.895C166.217 114.675 172.073 113.065 178.995 113.065C185.515 113.065 191.19 114.514 196.019 117.412C200.849 120.269 204.592 124.314 207.248 129.546C209.944 134.778 211.272 140.896 211.232 147.898V207H181.712V153.694C181.752 148.542 180.464 144.518 177.848 141.62C175.232 138.722 171.549 137.273 166.8 137.273C163.701 137.273 160.965 137.958 158.59 139.326C156.256 140.654 154.425 142.566 153.097 145.061C151.809 147.556 151.145 150.575 151.104 154.116ZM272.945 208.751C263.205 208.751 254.834 206.759 247.831 202.774C240.869 198.75 235.496 193.155 231.713 185.991C227.97 178.787 226.098 170.436 226.098 160.938C226.098 151.4 227.97 143.049 231.713 135.885C235.496 128.681 240.869 123.087 247.831 119.102C254.834 115.078 263.205 113.065 272.945 113.065C282.684 113.065 291.035 115.078 297.998 119.102C305.001 123.087 310.374 128.681 314.117 135.885C317.9 143.049 319.791 151.4 319.791 160.938C319.791 170.436 317.9 178.787 314.117 185.991C310.374 193.155 305.001 198.75 297.998 202.774C291.035 206.759 282.684 208.751 272.945 208.751ZM273.126 186.474C276.668 186.474 279.666 185.388 282.121 183.214C284.576 181.041 286.447 178.023 287.735 174.159C289.063 170.295 289.727 165.828 289.727 160.757C289.727 155.606 289.063 151.098 287.735 147.234C286.447 143.371 284.576 140.352 282.121 138.179C279.666 136.006 276.668 134.919 273.126 134.919C269.463 134.919 266.365 136.006 263.829 138.179C261.334 140.352 259.422 143.371 258.094 147.234C256.806 151.098 256.162 155.606 256.162 160.757C256.162 165.828 256.806 170.295 258.094 174.159C259.422 178.023 261.334 181.041 263.829 183.214C266.365 185.388 269.463 186.474 273.126 186.474ZM334.914 241.773V114.273H364.133V130.15H365.038C366.246 127.333 367.956 124.616 370.17 122C372.423 119.384 375.281 117.251 378.742 115.601C382.243 113.911 386.429 113.065 391.299 113.065C397.738 113.065 403.755 114.756 409.349 118.136C414.984 121.517 419.532 126.729 422.993 133.772C426.454 140.815 428.184 149.79 428.184 160.697C428.184 171.201 426.514 179.995 423.174 187.078C419.874 194.161 415.406 199.474 409.772 203.016C404.178 206.557 397.96 208.328 391.118 208.328C386.449 208.328 382.404 207.563 378.983 206.034C375.563 204.505 372.685 202.492 370.351 199.997C368.057 197.502 366.286 194.826 365.038 191.968H364.434V241.773H334.914ZM363.831 160.636C363.831 165.627 364.495 169.973 365.823 173.676C367.191 177.379 369.143 180.256 371.679 182.309C374.255 184.321 377.333 185.327 380.915 185.327C384.537 185.327 387.616 184.321 390.152 182.309C392.687 180.256 394.599 177.379 395.887 173.676C397.215 169.973 397.879 165.627 397.879 160.636C397.879 155.646 397.215 151.319 395.887 147.657C394.599 143.995 392.687 141.157 390.152 139.145C387.657 137.133 384.578 136.126 380.915 136.126C377.293 136.126 374.214 137.112 371.679 139.085C369.143 141.057 367.191 143.874 365.823 147.536C364.495 151.199 363.831 155.565 363.831 160.636ZM443.654 207V114.273H471.726V131.297H472.752C474.684 125.662 477.944 121.215 482.532 117.955C487.12 114.695 492.594 113.065 498.952 113.065C505.392 113.065 510.906 114.715 515.494 118.016C520.082 121.316 523 125.743 524.247 131.297H525.213C526.944 125.783 530.324 121.376 535.355 118.076C540.386 114.736 546.322 113.065 553.164 113.065C561.938 113.065 569.061 115.883 574.535 121.517C580.008 127.111 582.745 134.798 582.745 144.578V207H553.224V151.339C553.224 146.711 552.037 143.19 549.663 140.775C547.288 138.32 544.209 137.092 540.426 137.092C536.361 137.092 533.162 138.42 530.827 141.077C528.533 143.693 527.386 147.214 527.386 151.641V207H499.013V151.038C499.013 146.731 497.846 143.33 495.511 140.835C493.177 138.34 490.098 137.092 486.275 137.092C483.699 137.092 481.425 137.716 479.453 138.964C477.481 140.171 475.932 141.902 474.805 144.156C473.718 146.409 473.175 149.066 473.175 152.124V207H443.654ZM627.177 208.57C621.261 208.57 616.009 207.584 611.42 205.612C606.873 203.599 603.271 200.581 600.614 196.556C597.998 192.491 596.69 187.4 596.69 181.283C596.69 176.131 597.596 171.785 599.407 168.243C601.218 164.701 603.713 161.824 606.893 159.61C610.072 157.397 613.735 155.726 617.88 154.599C622.025 153.432 626.452 152.647 631.161 152.245C636.433 151.762 640.679 151.259 643.899 150.736C647.119 150.172 649.453 149.388 650.902 148.381C652.391 147.335 653.136 145.866 653.136 143.974V143.673C653.136 140.574 652.069 138.179 649.936 136.489C647.803 134.798 644.925 133.953 641.303 133.953C637.399 133.953 634.26 134.798 631.886 136.489C629.511 138.179 628.002 140.513 627.358 143.491L600.131 142.526C600.936 136.891 603.009 131.86 606.349 127.433C609.73 122.966 614.358 119.464 620.234 116.929C626.151 114.353 633.254 113.065 641.545 113.065C647.461 113.065 652.914 113.77 657.905 115.178C662.895 116.547 667.242 118.559 670.945 121.215C674.647 123.831 677.505 127.051 679.517 130.874C681.57 134.698 682.596 139.064 682.596 143.974V207H654.826V194.081H654.102C652.451 197.22 650.339 199.876 647.763 202.05C645.227 204.223 642.229 205.853 638.768 206.94C635.347 208.026 631.483 208.57 627.177 208.57ZM636.293 189.251C639.472 189.251 642.33 188.607 644.865 187.32C647.441 186.032 649.493 184.261 651.023 182.007C652.552 179.713 653.317 177.057 653.317 174.038V165.224C652.472 165.667 651.445 166.07 650.238 166.432C649.071 166.794 647.783 167.136 646.374 167.458C644.966 167.78 643.517 168.062 642.028 168.303C640.539 168.545 639.11 168.766 637.741 168.967C634.964 169.41 632.59 170.094 630.618 171.02C628.686 171.946 627.197 173.153 626.151 174.642C625.144 176.091 624.641 177.821 624.641 179.834C624.641 182.893 625.728 185.227 627.901 186.837C630.115 188.446 632.912 189.251 636.293 189.251ZM700.646 207V114.273H729.322V131.176H730.288C731.978 125.059 734.735 120.511 738.558 117.533C742.382 114.514 746.829 113.005 751.9 113.005C753.268 113.005 754.677 113.106 756.126 113.307C757.575 113.468 758.923 113.729 760.17 114.092V139.749C758.762 139.266 756.911 138.883 754.616 138.602C752.363 138.32 750.35 138.179 748.58 138.179C745.078 138.179 741.919 138.964 739.102 140.533C736.325 142.063 734.131 144.216 732.521 146.993C730.952 149.73 730.167 152.949 730.167 156.652V207H700.646ZM828.856 114.273V136.006H770.358V114.273H828.856ZM782.613 92.0568H812.133V177.842C812.133 179.653 812.415 181.122 812.979 182.249C813.582 183.335 814.448 184.12 815.574 184.603C816.701 185.046 818.05 185.267 819.619 185.267C820.746 185.267 821.933 185.166 823.181 184.965C824.469 184.724 825.435 184.522 826.079 184.362L830.546 205.672C829.137 206.074 827.145 206.577 824.569 207.181C822.034 207.785 818.995 208.167 815.454 208.328C808.531 208.65 802.595 207.845 797.645 205.913C792.735 203.941 788.972 200.883 786.356 196.737C783.78 192.592 782.532 187.38 782.613 181.102V92.0568Z" fill="white"/>
<path d="M840.991 65.7999V87.3999C840.991 114.551 840.991 128.13 849.429 136.562C857.86 145 871.44 145 898.591 145H905.791C932.942 145 946.521 145 954.952 136.562M963.391 65.7999V87.3999C963.391 95.8239 963.391 102.938 963.139 109" stroke="white" stroke-width="1.5" stroke-linecap="round"/>
<path d="M884.191 1H920.191M884.191 1L879.496 47.9224C879.187 51.0887 879.544 54.2847 880.544 57.3049C881.543 60.3251 883.164 63.1027 885.302 65.4591C887.439 67.8154 890.046 69.6985 892.955 70.9871C895.863 72.2758 899.009 72.9415 902.191 72.9415C905.372 72.9415 908.518 72.2758 911.427 70.9871C914.336 69.6985 916.943 67.8154 919.08 65.4591C921.218 63.1027 922.838 60.3251 923.838 57.3049C924.838 54.2847 925.194 51.0887 924.885 47.9224L920.191 1M884.191 1H869.2C862.663 1 859.394 1 856.586 1.7704C853.665 2.57144 850.946 3.97767 848.604 5.8978C846.262 7.81794 844.35 10.2091 842.992 12.916M884.191 1L878.971 53.164C878.695 56.1493 877.813 59.047 876.379 61.6797C874.945 64.3124 872.988 66.6246 870.63 68.4749C868.271 70.3252 865.559 71.6746 862.66 72.4405C859.762 73.2064 856.737 73.3726 853.772 72.9291C850.807 72.4855 847.964 71.4415 845.417 69.8609C842.869 68.2803 840.671 66.1965 838.957 63.7369C837.243 61.2772 836.048 58.4937 835.447 55.5565C834.846 52.6194 834.851 49.5905 835.461 46.6552L835.951 44.2M920.191 1H935.181C941.719 1 944.988 1 947.796 1.7704C950.716 2.57144 953.436 3.97767 955.777 5.8978C958.119 7.81794 960.031 10.2091 961.389 12.916C962.692 15.508 963.333 18.7192 964.615 25.1272L968.92 46.6552C969.531 49.5905 969.535 52.6194 968.934 55.5565C968.333 58.4937 967.139 61.2772 965.425 63.7369C963.711 66.1965 961.513 68.2803 958.965 69.8609C956.418 71.4415 953.574 72.4855 950.609 72.9291C947.644 73.3726 944.62 73.2064 941.721 72.4405C938.823 71.6746 936.111 70.3252 933.752 68.4749C931.393 66.6246 929.437 64.3124 928.002 61.6797C926.568 59.047 925.686 56.1493 925.411 53.164L920.191 1ZM884.191 141.4V119.8C884.191 113.068 884.191 109.706 885.638 107.2C886.586 105.558 887.949 104.195 889.591 103.247C892.096 101.8 895.459 101.8 902.191 101.8C908.923 101.8 912.285 101.8 914.791 103.247C916.432 104.195 917.796 105.558 918.744 107.2C920.191 109.706 920.191 113.068 920.191 119.8V141.4" stroke="white" stroke-width="1.5" stroke-linecap="round"/>
</svg>
