<svg width="449" height="104" viewBox="0 0 449 104" fill="none" xmlns="http://www.w3.org/2000/svg">
<path d="M35.8523 44.2614C35.6629 42.178 34.8201 40.5587 33.3239 39.4034C31.8466 38.2292 29.7348 37.642 26.9886 37.642C25.1705 37.642 23.6553 37.8788 22.4432 38.3523C21.2311 38.8258 20.322 39.4792 19.7159 40.3125C19.1098 41.1269 18.7973 42.0644 18.7784 43.125C18.7405 43.9962 18.911 44.7633 19.2898 45.4261C19.6875 46.089 20.2557 46.6761 20.9943 47.1875C21.7519 47.6799 22.661 48.1155 23.7216 48.4943C24.7822 48.8731 25.9754 49.2045 27.3011 49.4886L32.3011 50.625C35.1799 51.25 37.7178 52.0833 39.9148 53.125C42.1307 54.1667 43.9867 55.4072 45.483 56.8466C46.9981 58.286 48.1439 59.9432 48.9205 61.8182C49.697 63.6932 50.0947 65.7955 50.1136 68.125C50.0947 71.7992 49.1667 74.9527 47.3295 77.5852C45.4924 80.2178 42.8504 82.2348 39.4034 83.6364C35.9754 85.0379 31.8371 85.7386 26.9886 85.7386C22.1212 85.7386 17.8788 85.0095 14.2614 83.5511C10.6439 82.0928 7.83144 79.8769 5.82386 76.9034C3.81629 73.9299 2.78409 70.1705 2.72727 65.625H16.1932C16.3068 67.5 16.8087 69.0625 17.6989 70.3125C18.589 71.5625 19.8106 72.5095 21.3636 73.1534C22.9356 73.7973 24.7538 74.1193 26.8182 74.1193C28.7121 74.1193 30.322 73.8636 31.6477 73.3523C32.9924 72.8409 34.0246 72.1307 34.7443 71.2216C35.464 70.3125 35.8333 69.2708 35.8523 68.0966C35.8333 66.9981 35.4924 66.0606 34.8295 65.2841C34.1667 64.4886 33.1439 63.8068 31.7614 63.2386C30.3977 62.6515 28.6553 62.1117 26.5341 61.6193L20.4545 60.1989C15.4167 59.0436 11.4489 57.178 8.55114 54.6023C5.65341 52.0076 4.21402 48.5038 4.23295 44.0909C4.21402 40.4924 5.17992 37.339 7.13068 34.6307C9.08144 31.9223 11.7803 29.8106 15.2273 28.2955C18.6742 26.7803 22.6042 26.0227 27.017 26.0227C31.5246 26.0227 35.4356 26.7898 38.75 28.3239C42.0833 29.839 44.6686 31.9697 46.5057 34.7159C48.3428 37.4621 49.2803 40.6439 49.3182 44.2614H35.8523ZM71.108 60.1136V85H57.2159V26.8182H70.6534V49.375H71.1364C72.1212 46.6856 73.7311 44.5833 75.9659 43.0682C78.2197 41.553 80.9754 40.7955 84.233 40.7955C87.3011 40.7955 89.9716 41.4773 92.2443 42.8409C94.517 44.1856 96.2784 46.089 97.5284 48.5511C98.7973 51.0133 99.4223 53.892 99.4034 57.1875V85H85.5114V59.9148C85.5303 57.4905 84.9242 55.5966 83.6932 54.233C82.4621 52.8693 80.7292 52.1875 78.4943 52.1875C77.036 52.1875 75.7481 52.5095 74.6307 53.1534C73.5322 53.7784 72.6705 54.678 72.0455 55.8523C71.4394 57.0265 71.1269 58.447 71.108 60.1136ZM128.445 85.8239C123.861 85.8239 119.922 84.8864 116.626 83.0114C113.35 81.1174 110.821 78.4848 109.041 75.1136C107.28 71.7235 106.399 67.7936 106.399 63.3239C106.399 58.8352 107.28 54.9053 109.041 51.5341C110.821 48.1439 113.35 45.5114 116.626 43.6364C119.922 41.7424 123.861 40.7955 128.445 40.7955C133.028 40.7955 136.958 41.7424 140.234 43.6364C143.53 45.5114 146.058 48.1439 147.82 51.5341C149.6 54.9053 150.49 58.8352 150.49 63.3239C150.49 67.7936 149.6 71.7235 147.82 75.1136C146.058 78.4848 143.53 81.1174 140.234 83.0114C136.958 84.8864 133.028 85.8239 128.445 85.8239ZM128.53 75.3409C130.196 75.3409 131.607 74.8295 132.763 73.8068C133.918 72.7841 134.799 71.3636 135.405 69.5455C136.03 67.7273 136.342 65.625 136.342 63.2386C136.342 60.8144 136.03 58.6932 135.405 56.875C134.799 55.0568 133.918 53.6364 132.763 52.6136C131.607 51.5909 130.196 51.0795 128.53 51.0795C126.806 51.0795 125.348 51.5909 124.155 52.6136C122.981 53.6364 122.081 55.0568 121.456 56.875C120.85 58.6932 120.547 60.8144 120.547 63.2386C120.547 65.625 120.85 67.7273 121.456 69.5455C122.081 71.3636 122.981 72.7841 124.155 73.8068C125.348 74.8295 126.806 75.3409 128.53 75.3409ZM157.607 101.364V41.3636H171.357V48.8352H171.783C172.351 47.5095 173.156 46.2311 174.197 45C175.258 43.7689 176.603 42.7652 178.232 41.9886C179.879 41.1932 181.849 40.7955 184.141 40.7955C187.171 40.7955 190.002 41.5909 192.635 43.1818C195.286 44.7727 197.427 47.2254 199.055 50.5398C200.684 53.8542 201.499 58.0777 201.499 63.2102C201.499 68.1534 200.713 72.2917 199.141 75.625C197.588 78.9583 195.485 81.4583 192.834 83.125C190.201 84.7917 187.275 85.625 184.055 85.625C181.858 85.625 179.955 85.2652 178.345 84.5455C176.735 83.8258 175.381 82.8788 174.283 81.7045C173.203 80.5303 172.37 79.2708 171.783 77.9261H171.499V101.364H157.607ZM171.214 63.1818C171.214 65.5303 171.527 67.5758 172.152 69.3182C172.796 71.0606 173.714 72.4148 174.908 73.3807C176.12 74.3277 177.569 74.8011 179.254 74.8011C180.959 74.8011 182.408 74.3277 183.601 73.3807C184.794 72.4148 185.694 71.0606 186.3 69.3182C186.925 67.5758 187.237 65.5303 187.237 63.1818C187.237 60.8333 186.925 58.7973 186.3 57.0739C185.694 55.3504 184.794 54.0152 183.601 53.0682C182.427 52.1212 180.978 51.6477 179.254 51.6477C177.55 51.6477 176.101 52.1117 174.908 53.0398C173.714 53.9678 172.796 55.2936 172.152 57.017C171.527 58.7405 171.214 60.7955 171.214 63.1818ZM208.778 85V41.3636H221.989V49.375H222.472C223.381 46.7235 224.915 44.6307 227.074 43.0966C229.233 41.5625 231.809 40.7955 234.801 40.7955C237.831 40.7955 240.426 41.572 242.585 43.125C244.744 44.678 246.117 46.7614 246.705 49.375H247.159C247.973 46.7803 249.564 44.7064 251.932 43.1534C254.299 41.5814 257.093 40.7955 260.312 40.7955C264.441 40.7955 267.794 42.1212 270.369 44.7727C272.945 47.4053 274.233 51.0227 274.233 55.625V85H260.341V58.8068C260.341 56.6288 259.782 54.9716 258.665 53.8352C257.547 52.6799 256.098 52.1023 254.318 52.1023C252.405 52.1023 250.9 52.7273 249.801 53.9773C248.722 55.2083 248.182 56.8655 248.182 58.9489V85H234.83V58.6648C234.83 56.6383 234.28 55.0379 233.182 53.8636C232.083 52.6894 230.634 52.1023 228.835 52.1023C227.623 52.1023 226.553 52.3958 225.625 52.983C224.697 53.5511 223.968 54.3655 223.438 55.4261C222.926 56.4867 222.67 57.7367 222.67 59.1761V85H208.778ZM295.142 85.7386C292.358 85.7386 289.886 85.2746 287.727 84.3466C285.587 83.3996 283.892 81.9792 282.642 80.0852C281.411 78.1723 280.795 75.7765 280.795 72.8977C280.795 70.4735 281.222 68.428 282.074 66.7614C282.926 65.0947 284.1 63.7405 285.597 62.6989C287.093 61.6572 288.816 60.8712 290.767 60.3409C292.718 59.7917 294.801 59.4223 297.017 59.233C299.498 59.0057 301.496 58.7689 303.011 58.5227C304.527 58.2576 305.625 57.8883 306.307 57.4148C307.008 56.9223 307.358 56.2311 307.358 55.3409V55.1989C307.358 53.7405 306.856 52.6136 305.852 51.8182C304.848 51.0227 303.494 50.625 301.79 50.625C299.953 50.625 298.475 51.0227 297.358 51.8182C296.241 52.6136 295.53 53.7121 295.227 55.1136L282.415 54.6591C282.794 52.0076 283.769 49.6402 285.341 47.5568C286.932 45.4545 289.11 43.8068 291.875 42.6136C294.659 41.4015 298.002 40.7955 301.903 40.7955C304.688 40.7955 307.254 41.1269 309.602 41.7898C311.951 42.4337 313.996 43.3807 315.739 44.6307C317.481 45.8617 318.826 47.3769 319.773 49.1761C320.739 50.9754 321.222 53.0303 321.222 55.3409V85H308.153V78.9205H307.812C307.036 80.3977 306.042 81.6477 304.83 82.6705C303.636 83.6932 302.225 84.4602 300.597 84.9716C298.987 85.483 297.169 85.7386 295.142 85.7386ZM299.432 76.6477C300.928 76.6477 302.273 76.3447 303.466 75.7386C304.678 75.1326 305.644 74.2992 306.364 73.2386C307.083 72.1591 307.443 70.9091 307.443 69.4886V65.3409C307.045 65.5492 306.563 65.7386 305.994 65.9091C305.445 66.0795 304.839 66.2405 304.176 66.392C303.513 66.5436 302.831 66.6761 302.131 66.7898C301.43 66.9034 300.758 67.0076 300.114 67.1023C298.807 67.3106 297.689 67.6326 296.761 68.0682C295.852 68.5038 295.152 69.072 294.659 69.7727C294.186 70.4545 293.949 71.2689 293.949 72.2159C293.949 73.6553 294.46 74.7538 295.483 75.5114C296.525 76.2689 297.841 76.6477 299.432 76.6477ZM329.716 85V41.3636H343.21V49.3182H343.665C344.46 46.4394 345.758 44.2992 347.557 42.8977C349.356 41.4773 351.449 40.767 353.835 40.767C354.479 40.767 355.142 40.8144 355.824 40.9091C356.506 40.9848 357.14 41.108 357.727 41.2784V53.3523C357.064 53.125 356.193 52.9451 355.114 52.8125C354.053 52.6799 353.106 52.6136 352.273 52.6136C350.625 52.6136 349.138 52.983 347.812 53.7216C346.506 54.4413 345.473 55.4545 344.716 56.7614C343.977 58.0492 343.608 59.5644 343.608 61.3068V85H329.716ZM390.05 41.3636V51.5909H362.521V41.3636H390.05ZM368.288 30.9091H382.18V71.2784C382.18 72.1307 382.313 72.822 382.578 73.3523C382.862 73.8636 383.269 74.233 383.8 74.4602C384.33 74.6686 384.964 74.7727 385.703 74.7727C386.233 74.7727 386.792 74.7254 387.379 74.6307C387.985 74.517 388.44 74.4223 388.743 74.3466L390.845 84.375C390.182 84.5644 389.245 84.8011 388.033 85.0852C386.839 85.3693 385.41 85.5492 383.743 85.625C380.485 85.7765 377.692 85.3977 375.362 84.4886C373.052 83.5606 371.281 82.1212 370.05 80.1705C368.838 78.2197 368.25 75.767 368.288 72.8125V30.9091Z" fill="white"/>
<path d="M399.247 25.2999V33.3999C399.247 43.5816 399.247 48.6738 402.411 51.8355C405.573 54.9999 410.665 54.9999 420.847 54.9999H423.547C433.728 54.9999 438.82 54.9999 441.982 51.8355M445.147 25.2999V33.3999C445.147 36.5589 445.147 39.2265 445.052 41.4999" stroke="white" stroke-width="1.5" stroke-linecap="round"/>
<path d="M415.447 1H428.947M415.447 1L413.686 18.5959C413.57 19.7833 413.704 20.9818 414.079 22.1143C414.454 23.2469 415.062 24.2885 415.863 25.1721C416.665 26.0558 417.642 26.7619 418.733 27.2452C419.824 27.7284 421.004 27.9781 422.197 27.9781C423.39 27.9781 424.569 27.7284 425.66 27.2452C426.751 26.7619 427.728 26.0558 428.53 25.1721C429.332 24.2885 429.939 23.2469 430.314 22.1143C430.689 20.9818 430.823 19.7833 430.707 18.5959L428.947 1M415.447 1H409.825C407.374 1 406.148 1 405.095 1.2889C404 1.58929 402.98 2.11662 402.102 2.83668C401.223 3.55673 400.506 4.4534 399.997 5.4685M415.447 1L413.489 20.5615C413.386 21.681 413.055 22.7676 412.517 23.7549C411.979 24.7421 411.246 25.6092 410.361 26.3031C409.476 26.997 408.46 27.503 407.373 27.7902C406.286 28.0774 405.152 28.1397 404.04 27.9734C402.928 27.8071 401.862 27.4156 400.906 26.8228C399.951 26.2301 399.127 25.4487 398.484 24.5263C397.841 23.604 397.393 22.5601 397.168 21.4587C396.942 20.3573 396.944 19.2214 397.173 18.1207L397.357 17.2M428.947 1H434.568C437.02 1 438.245 1 439.298 1.2889C440.394 1.58929 441.413 2.11662 442.292 2.83668C443.17 3.55673 443.887 4.4534 444.396 5.4685C444.885 6.4405 445.125 7.6447 445.606 10.0477L447.22 18.1207C447.449 19.2214 447.451 20.3573 447.225 21.4587C447 22.5601 446.552 23.604 445.909 24.5263C445.267 25.4487 444.442 26.2301 443.487 26.8228C442.532 27.4156 441.465 27.8071 440.353 27.9734C439.242 28.1397 438.107 28.0774 437.02 27.7902C435.934 27.503 434.917 26.997 434.032 26.3031C433.147 25.6092 432.414 24.7421 431.876 23.7549C431.338 22.7676 431.007 21.681 430.904 20.5615L428.947 1ZM415.447 53.65V45.55C415.447 43.0255 415.447 41.7646 415.989 40.825C416.345 40.2094 416.856 39.6981 417.472 39.3427C418.411 38.8 419.672 38.8 422.197 38.8C424.721 38.8 425.982 38.8 426.922 39.3427C427.537 39.6981 428.048 40.2094 428.404 40.825C428.947 41.7646 428.947 43.0255 428.947 45.55V53.65" stroke="white" stroke-width="1.5" stroke-linecap="round"/>
</svg>
