<svg width="287" height="61" viewBox="0 0 287 61" fill="none" xmlns="http://www.w3.org/2000/svg">
<path d="M22.4077 23.5384C22.2893 22.2363 21.7625 21.2242 20.8274 20.5021C19.9041 19.7682 18.5843 19.4013 16.8679 19.4013C15.7315 19.4013 14.7846 19.5492 14.027 19.8452C13.2694 20.1411 12.7012 20.5495 12.3224 21.0703C11.9437 21.5793 11.7483 22.1652 11.7365 22.8281C11.7128 23.3726 11.8194 23.852 12.0561 24.2663C12.3047 24.6806 12.6598 25.0476 13.1214 25.3672C13.5949 25.675 14.1631 25.9472 14.826 26.1839C15.4889 26.4207 16.2346 26.6278 17.0632 26.8054L20.1882 27.5156C21.9875 27.9062 23.5736 28.4271 24.9467 29.0781C26.3317 29.7292 27.4917 30.5045 28.4268 31.4041C29.3738 32.3037 30.09 33.3395 30.5753 34.5114C31.0606 35.6832 31.3092 36.9972 31.321 38.4531C31.3092 40.7495 30.7292 42.7204 29.581 44.3658C28.4328 46.0111 26.7815 47.2718 24.6271 48.1477C22.4846 49.0237 19.8982 49.4616 16.8679 49.4616C13.8258 49.4616 11.1742 49.0059 8.91335 48.0945C6.65246 47.183 4.89465 45.7981 3.63991 43.9396C2.38518 42.0812 1.74006 39.7315 1.70455 36.8906H10.1207C10.1918 38.0625 10.5054 39.0391 11.0618 39.8203C11.6181 40.6016 12.3816 41.1934 13.3523 41.5959C14.3348 41.9983 15.4711 42.1996 16.7614 42.1996C17.9451 42.1996 18.9512 42.0398 19.7798 41.7202C20.6203 41.4006 21.2654 40.9567 21.7152 40.3885C22.165 39.8203 22.3958 39.1693 22.4077 38.4354C22.3958 37.7488 22.1828 37.1629 21.7685 36.6776C21.3542 36.1804 20.715 35.7543 19.8509 35.3991C18.9986 35.0322 17.9096 34.6948 16.5838 34.3871L12.7841 33.4993C9.63542 32.7772 7.15554 31.6113 5.34446 30.0014C3.53338 28.3797 2.63376 26.1899 2.6456 23.4318C2.63376 21.1828 3.23745 19.2119 4.45668 17.5192C5.6759 15.8265 7.36269 14.5066 9.51705 13.5597C11.6714 12.6127 14.1276 12.1392 16.8857 12.1392C19.7029 12.1392 22.1473 12.6186 24.2188 13.5774C26.3021 14.5244 27.9179 15.8561 29.0661 17.5724C30.2143 19.2888 30.8002 21.2775 30.8239 23.5384H22.4077ZM44.4425 33.446V49H35.7599V12.6364H44.1584V26.7344H44.4602C45.0758 25.0535 46.0819 23.7396 47.4787 22.7926C48.8873 21.8456 50.6096 21.3722 52.6456 21.3722C54.5632 21.3722 56.2322 21.7983 57.6527 22.6506C59.0732 23.491 60.174 24.6806 60.9553 26.2195C61.7483 27.7583 62.139 29.5575 62.1271 31.6172V49H53.4446V33.3217C53.4564 31.8066 53.0777 30.6229 52.3082 29.7706C51.5388 28.9183 50.4557 28.4922 49.0589 28.4922C48.1475 28.4922 47.3426 28.6934 46.6442 29.0959C45.9576 29.4865 45.419 30.0488 45.0284 30.7827C44.6496 31.5166 44.4543 32.4044 44.4425 33.446ZM80.2779 49.5149C77.4133 49.5149 74.9512 48.929 72.8915 47.7571C70.8437 46.5734 69.2634 44.928 68.1507 42.821C67.0499 40.7022 66.4995 38.246 66.4995 35.4524C66.4995 32.647 67.0499 30.1908 68.1507 28.0838C69.2634 25.965 70.8437 24.3196 72.8915 23.1477C74.9512 21.964 77.4133 21.3722 80.2779 21.3722C83.1425 21.3722 85.5987 21.964 87.6465 23.1477C89.7061 24.3196 91.2864 25.965 92.3873 28.0838C93.4999 30.1908 94.0563 32.647 94.0563 35.4524C94.0563 38.246 93.4999 40.7022 92.3873 42.821C91.2864 44.928 89.7061 46.5734 87.6465 47.7571C85.5987 48.929 83.1425 49.5149 80.2779 49.5149ZM80.3311 42.9631C81.3728 42.9631 82.2547 42.6435 82.9767 42.0043C83.6988 41.3651 84.2492 40.4773 84.628 39.3409C85.0186 38.2045 85.214 36.8906 85.214 35.3991C85.214 33.884 85.0186 32.5582 84.628 31.4219C84.2492 30.2855 83.6988 29.3977 82.9767 28.7585C82.2547 28.1193 81.3728 27.7997 80.3311 27.7997C79.254 27.7997 78.3425 28.1193 77.5968 28.7585C76.8629 29.3977 76.3006 30.2855 75.91 31.4219C75.5312 32.5582 75.3418 33.884 75.3418 35.3991C75.3418 36.8906 75.5312 38.2045 75.91 39.3409C76.3006 40.4773 76.8629 41.3651 77.5968 42.0043C78.3425 42.6435 79.254 42.9631 80.3311 42.9631ZM98.5041 59.2273V21.7273H107.098V26.397H107.364C107.719 25.5684 108.222 24.7694 108.873 24C109.536 23.2306 110.377 22.6032 111.395 22.1179C112.425 21.6207 113.656 21.3722 115.088 21.3722C116.982 21.3722 118.751 21.8693 120.397 22.8636C122.054 23.858 123.392 25.3909 124.41 27.4624C125.428 29.5339 125.937 32.1735 125.937 35.3814C125.937 38.4709 125.445 41.0573 124.463 43.1406C123.492 45.224 122.178 46.7865 120.521 47.8281C118.876 48.8698 117.047 49.3906 115.035 49.3906C113.662 49.3906 112.472 49.1657 111.466 48.7159C110.46 48.2661 109.613 47.6742 108.927 46.9403C108.252 46.2064 107.731 45.4193 107.364 44.5788H107.187V59.2273H98.5041ZM107.009 35.3636C107.009 36.8314 107.204 38.1098 107.595 39.1989C107.997 40.2879 108.572 41.1342 109.317 41.7379C110.075 42.3298 110.98 42.6257 112.034 42.6257C113.099 42.6257 114.005 42.3298 114.751 41.7379C115.496 41.1342 116.059 40.2879 116.437 39.1989C116.828 38.1098 117.023 36.8314 117.023 35.3636C117.023 33.8958 116.828 32.6233 116.437 31.5462C116.059 30.469 115.496 29.6345 114.751 29.0426C114.017 28.4508 113.111 28.1548 112.034 28.1548C110.969 28.1548 110.063 28.4448 109.317 29.0249C108.572 29.6049 107.997 30.4335 107.595 31.5107C107.204 32.5878 107.009 33.8722 107.009 35.3636Z" fill="#225F33"/>
<path d="M130.487 49V21.7273H138.743V26.7344H139.045C139.613 25.0772 140.572 23.7692 141.921 22.8104C143.271 21.8516 144.88 21.3722 146.751 21.3722C148.645 21.3722 150.266 21.8575 151.616 22.8281C152.965 23.7988 153.823 25.1009 154.19 26.7344H154.474C154.983 25.1127 155.978 23.8165 157.457 22.8459C158.937 21.8634 160.683 21.3722 162.695 21.3722C165.276 21.3722 167.371 22.2008 168.981 23.858C170.591 25.5033 171.396 27.7642 171.396 30.6406V49H162.713V32.6293C162.713 31.268 162.364 30.2322 161.665 29.522C160.967 28.8 160.062 28.4389 158.949 28.4389C157.753 28.4389 156.812 28.8295 156.126 29.6108C155.451 30.3802 155.114 31.416 155.114 32.718V49H146.768V32.5405C146.768 31.2739 146.425 30.2737 145.739 29.5398C145.052 28.8059 144.147 28.4389 143.022 28.4389C142.264 28.4389 141.596 28.6224 141.016 28.9893C140.436 29.3445 139.98 29.8535 139.648 30.5163C139.329 31.1792 139.169 31.9605 139.169 32.8601V49H130.487ZM184.464 49.4616C182.724 49.4616 181.179 49.1716 179.83 48.5916C178.492 47.9998 177.433 47.112 176.651 45.9283C175.882 44.7327 175.497 43.2353 175.497 41.4361C175.497 39.9209 175.763 38.6425 176.296 37.6009C176.829 36.5592 177.563 35.7128 178.498 35.0618C179.433 34.4107 180.51 33.9195 181.729 33.5881C182.949 33.2448 184.251 33.014 185.636 32.8956C187.186 32.7536 188.435 32.6056 189.382 32.4517C190.329 32.286 191.016 32.0552 191.442 31.7592C191.88 31.4515 192.099 31.0194 192.099 30.4631V30.3743C192.099 29.4628 191.785 28.7585 191.158 28.2614C190.53 27.7642 189.684 27.5156 188.619 27.5156C187.47 27.5156 186.547 27.7642 185.849 28.2614C185.15 28.7585 184.706 29.4451 184.517 30.321L176.509 30.0369C176.746 28.3797 177.356 26.9001 178.338 25.598C179.332 24.2841 180.694 23.2543 182.422 22.5085C184.162 21.7509 186.251 21.3722 188.69 21.3722C190.43 21.3722 192.034 21.5793 193.501 21.9936C194.969 22.3961 196.248 22.9879 197.337 23.7692C198.426 24.5386 199.266 25.4856 199.858 26.6101C200.462 27.7346 200.763 29.0189 200.763 30.4631V49H192.596V45.2003H192.383C191.897 46.1236 191.276 46.9048 190.518 47.544C189.773 48.1832 188.891 48.6626 187.873 48.9822C186.867 49.3018 185.73 49.4616 184.464 49.4616ZM187.145 43.7798C188.08 43.7798 188.92 43.5904 189.666 43.2116C190.424 42.8329 191.027 42.312 191.477 41.6491C191.927 40.9744 192.152 40.1932 192.152 39.3054V36.7131C191.903 36.8433 191.602 36.9616 191.246 37.0682C190.903 37.1747 190.524 37.2753 190.11 37.37C189.696 37.4647 189.27 37.5476 188.832 37.6186C188.394 37.6896 187.973 37.7547 187.571 37.8139C186.754 37.9441 186.056 38.1454 185.476 38.4176C184.908 38.6899 184.47 39.045 184.162 39.483C183.866 39.9091 183.718 40.4181 183.718 41.0099C183.718 41.9096 184.038 42.5961 184.677 43.0696C185.328 43.5431 186.151 43.7798 187.145 43.7798ZM206.072 49V21.7273H214.506V26.6989H214.79C215.288 24.8996 216.098 23.562 217.223 22.6861C218.348 21.7983 219.656 21.3544 221.147 21.3544C221.549 21.3544 221.964 21.384 222.39 21.4432C222.816 21.4905 223.213 21.5675 223.58 21.674V29.2202C223.165 29.0781 222.621 28.9657 221.946 28.8828C221.283 28.8 220.691 28.7585 220.17 28.7585C219.141 28.7585 218.211 28.9893 217.383 29.451C216.566 29.9008 215.921 30.5341 215.447 31.3509C214.986 32.1558 214.755 33.1027 214.755 34.1918V49H206.072ZM243.781 21.7273V28.1193H226.576V21.7273H243.781ZM230.18 15.1932H238.863V40.424C238.863 40.9567 238.946 41.3887 239.111 41.7202C239.289 42.0398 239.543 42.2706 239.875 42.4126C240.206 42.5429 240.603 42.608 241.064 42.608C241.396 42.608 241.745 42.5784 242.112 42.5192C242.491 42.4482 242.775 42.389 242.964 42.3416L244.278 48.6094C243.864 48.7277 243.278 48.8757 242.52 49.0533C241.775 49.2308 240.881 49.3433 239.839 49.3906C237.803 49.4853 236.057 49.2486 234.601 48.6804C233.157 48.1004 232.05 47.2008 231.281 45.9815C230.523 44.7623 230.157 43.2294 230.18 41.3828V15.1932Z" fill="#DAAB33"/>
<path d="M255.414 17.3V22.4C255.414 28.8107 255.414 32.0169 257.406 34.0076C259.397 36 262.603 36 269.014 36H270.714C277.125 36 280.331 36 282.322 34.0076M284.314 17.3V22.4C284.314 24.389 284.314 26.0686 284.255 27.5" stroke="#DAAB33" stroke-width="1.5" stroke-linecap="round"/>
<path d="M265.614 2H274.114M265.614 2L264.506 13.0789C264.433 13.8265 264.517 14.5811 264.753 15.2942C264.989 16.0073 265.372 16.6631 265.877 17.2195C266.381 17.7759 266.997 18.2205 267.684 18.5247C268.37 18.829 269.113 18.9862 269.864 18.9862C270.616 18.9862 271.358 18.829 272.045 18.5247C272.732 18.2205 273.348 17.7759 273.852 17.2195C274.357 16.6631 274.74 16.0073 274.976 15.2942C275.212 14.5811 275.296 13.8265 275.223 13.0789L274.114 2M265.614 2H262.075C260.531 2 259.76 2 259.097 2.1819C258.407 2.37103 257.765 2.70306 257.212 3.15643C256.659 3.60979 256.208 4.17437 255.887 4.8135M265.614 2L264.382 14.3165C264.317 15.0214 264.109 15.7055 263.77 16.3272C263.431 16.9488 262.969 17.4947 262.413 17.9316C261.856 18.3685 261.215 18.6871 260.531 18.8679C259.847 19.0487 259.132 19.088 258.432 18.9833C257.732 18.8785 257.061 18.632 256.459 18.2588C255.858 17.8856 255.339 17.3936 254.934 16.8129C254.529 16.2321 254.248 15.5749 254.106 14.8814C253.964 14.1879 253.965 13.4727 254.109 12.7797L254.224 12.2M274.114 2H277.654C279.197 2 279.969 2 280.632 2.1819C281.322 2.37103 281.964 2.70306 282.517 3.15643C283.07 3.60979 283.521 4.17437 283.842 4.8135C284.15 5.4255 284.301 6.1837 284.603 7.6967L285.62 12.7797C285.764 13.4727 285.765 14.1879 285.623 14.8814C285.481 15.5749 285.2 16.2321 284.795 16.8129C284.39 17.3936 283.871 17.8856 283.27 18.2588C282.668 18.632 281.997 18.8785 281.297 18.9833C280.597 19.088 279.882 19.0487 279.198 18.8679C278.514 18.6871 277.873 18.3685 277.316 17.9316C276.759 17.4947 276.298 16.9488 275.959 16.3272C275.62 15.7055 275.412 15.0214 275.347 14.3165L274.114 2ZM265.614 35.15V30.05C265.614 28.4605 265.614 27.6666 265.956 27.075C266.18 26.6874 266.502 26.3655 266.889 26.1417C267.481 25.8 268.275 25.8 269.864 25.8C271.454 25.8 272.248 25.8 272.839 26.1417C273.227 26.3655 273.549 26.6874 273.773 27.075C274.114 27.6666 274.114 28.4605 274.114 30.05V35.15" stroke="#DAAB33" stroke-width="1.5" stroke-linecap="round"/>
</svg>
