<svg width="48" height="54" viewBox="0 0 48 54" fill="none" xmlns="http://www.w3.org/2000/svg">
<path d="M24 40.5L27.7333 36.72L23.5333 32.4H34.6667V27H23.5333L27.7333 22.68L24 18.9L13.3333 29.7L24 40.5ZM5.33333 48.6H42.6667V10.8H5.33333V48.6ZM0 54V5.4H16.5333C17.1111 3.78 18.0782 2.475 19.4347 1.485C20.7893 0.495 22.3111 0 24 0C25.6889 0 27.2116 0.495 28.568 1.485C29.9227 2.475 30.8889 3.78 31.4667 5.4H48V54H0ZM24 8.775C24.5778 8.775 25.056 8.5833 25.4347 8.1999C25.8116 7.8183 26 7.335 26 6.75C26 6.165 25.8116 5.6808 25.4347 5.2974C25.056 4.9158 24.5778 4.725 24 4.725C23.4222 4.725 22.9449 4.9158 22.568 5.2974C22.1893 5.6808 22 6.165 22 6.75C22 7.335 22.1893 7.8183 22.568 8.1999C22.9449 8.5833 23.4222 8.775 24 8.775Z" fill="#DAAB33"/>
</svg>
