<svg width="61" height="37" viewBox="0 0 61 37" fill="none" xmlns="http://www.w3.org/2000/svg">
<path d="M19.8462 36C21.2742 36 22.6438 35.4327 23.6537 34.4229C24.6635 33.4131 25.2308 32.0435 25.2308 30.6154C25.2308 29.1873 24.6635 27.8177 23.6537 26.8079C22.6438 25.7981 21.2742 25.2308 19.8462 25.2308C18.4181 25.2308 17.0485 25.7981 16.0387 26.8079C15.0288 27.8177 14.4615 29.1873 14.4615 30.6154C14.4615 32.0435 15.0288 33.4131 16.0387 34.4229C17.0485 35.4327 18.4181 36 19.8462 36ZM46.7692 36C48.1973 36 49.5669 35.4327 50.5767 34.4229C51.5865 33.4131 52.1538 32.0435 52.1538 30.6154C52.1538 29.1873 51.5865 27.8177 50.5767 26.8079C49.5669 25.7981 48.1973 25.2308 46.7692 25.2308C45.3411 25.2308 43.9715 25.7981 42.9617 26.8079C41.9519 27.8177 41.3846 29.1873 41.3846 30.6154C41.3846 32.0435 41.9519 33.4131 42.9617 34.4229C43.9715 35.4327 45.3411 36 46.7692 36Z" stroke="#DAAB33" stroke-width="1.5" stroke-miterlimit="1.5" stroke-linecap="round" stroke-linejoin="round"/>
<path d="M25.3654 30.6154H38.6923V2.61538C38.6923 2.18696 38.5221 1.77608 38.2192 1.47314C37.9162 1.17019 37.5053 1 37.0769 1H1M13.5192 30.6154H8C7.78786 30.6154 7.57781 30.5736 7.38182 30.4924C7.18583 30.4112 7.00775 30.2923 6.85775 30.1423C6.70775 29.9922 6.58876 29.8142 6.50758 29.6182C6.4264 29.4222 6.38462 29.2121 6.38462 29V15.8077" stroke="#DAAB33" stroke-width="1.5" stroke-linecap="round"/>
<path d="M3.69231 9.07692H14.4615" stroke="#DAAB33" stroke-width="1.5" stroke-linecap="round" stroke-linejoin="round"/>
<path d="M38.6923 9.07692H53.7962C54.1084 9.077 54.4139 9.16757 54.6758 9.33767C54.9376 9.50777 55.1446 9.75012 55.2715 10.0354L60.0908 20.88C60.1826 21.0859 60.2303 21.3088 60.2308 21.5342V29C60.2308 29.2121 60.189 29.4222 60.1078 29.6182C60.0266 29.8142 59.9076 29.9922 59.7576 30.1422C59.6076 30.2922 59.4296 30.4112 59.2336 30.4924C59.0376 30.5736 58.8275 30.6154 58.6154 30.6154H53.5M38.6923 30.6154H41.3846" stroke="#DAAB33" stroke-width="1.5" stroke-linecap="round"/>
</svg>
